<svg width="231" height="13" viewBox="0 0 231 13" fill="none" xmlns="http://www.w3.org/2000/svg">
<path d="M9.752 0.535999V12H8.976C8.85333 12 8.74933 11.9787 8.664 11.936C8.584 11.8933 8.504 11.8213 8.424 11.72L1.792 3.08C1.80267 3.21333 1.81067 3.344 1.816 3.472C1.82133 3.6 1.824 3.72 1.824 3.832V12H0.464V0.535999H1.264C1.33333 0.535999 1.392 0.541333 1.44 0.551999C1.488 0.557333 1.53067 0.570666 1.568 0.591999C1.60533 0.607999 1.64267 0.634666 1.68 0.672C1.71733 0.704 1.75733 0.746666 1.8 0.799999L8.432 9.432C8.42133 9.29333 8.41067 9.16 8.4 9.032C8.39467 8.89867 8.392 8.77333 8.392 8.656V0.535999H9.752ZM16.5044 8.352C15.8484 8.37333 15.2884 8.42667 14.8244 8.512C14.3657 8.592 13.9897 8.69867 13.6964 8.832C13.4084 8.96533 13.1977 9.12267 13.0644 9.304C12.9364 9.48533 12.8724 9.688 12.8724 9.912C12.8724 10.1253 12.907 10.3093 12.9764 10.464C13.0457 10.6187 13.139 10.7467 13.2564 10.848C13.379 10.944 13.5204 11.016 13.6804 11.064C13.8457 11.1067 14.0217 11.128 14.2084 11.128C14.459 11.128 14.6884 11.104 14.8964 11.056C15.1044 11.0027 15.299 10.928 15.4804 10.832C15.667 10.736 15.843 10.6213 16.0084 10.488C16.179 10.3547 16.3444 10.2027 16.5044 10.032V8.352ZM11.9044 5.04C12.3524 4.608 12.835 4.28533 13.3524 4.072C13.8697 3.85867 14.443 3.752 15.0724 3.752C15.5257 3.752 15.9284 3.82667 16.2804 3.976C16.6324 4.12533 16.9284 4.33333 17.1684 4.6C17.4084 4.86667 17.5897 5.18933 17.7124 5.568C17.835 5.94667 17.8964 6.36267 17.8964 6.816V12H17.2644C17.1257 12 17.019 11.9787 16.9444 11.936C16.8697 11.888 16.811 11.7973 16.7684 11.664L16.6084 10.896C16.395 11.0933 16.187 11.2693 15.9844 11.424C15.7817 11.5733 15.5684 11.7013 15.3444 11.808C15.1204 11.9093 14.8804 11.9867 14.6244 12.04C14.3737 12.0987 14.0937 12.128 13.7844 12.128C13.4697 12.128 13.1737 12.0853 12.8964 12C12.619 11.9093 12.3764 11.776 12.1684 11.6C11.9657 11.424 11.803 11.2027 11.6804 10.936C11.563 10.664 11.5044 10.344 11.5044 9.976C11.5044 9.656 11.5924 9.34933 11.7684 9.056C11.9444 8.75733 12.2297 8.49333 12.6244 8.264C13.019 8.03467 13.5337 7.848 14.1684 7.704C14.803 7.55467 15.5817 7.46933 16.5044 7.448V6.816C16.5044 6.18667 16.3684 5.712 16.0964 5.392C15.8244 5.06667 15.427 4.904 14.9044 4.904C14.5524 4.904 14.2564 4.94933 14.0164 5.04C13.7817 5.12533 13.5764 5.224 13.4004 5.336C13.2297 5.44267 13.0804 5.54133 12.9524 5.632C12.8297 5.71733 12.707 5.76 12.5844 5.76C12.4884 5.76 12.4057 5.736 12.3364 5.688C12.267 5.63467 12.2084 5.57067 12.1604 5.496L11.9044 5.04ZM15.7764 1.4C15.9684 1.4 16.115 1.344 16.2164 1.232C16.323 1.12 16.379 0.946666 16.3844 0.712H17.2484C17.2484 0.962666 17.2137 1.19467 17.1444 1.408C17.0804 1.616 16.9844 1.79467 16.8564 1.944C16.7337 2.09333 16.5844 2.21067 16.4084 2.296C16.2377 2.376 16.0457 2.416 15.8324 2.416C15.6457 2.416 15.4697 2.37867 15.3044 2.304C15.1444 2.224 14.9924 2.13867 14.8484 2.048C14.7044 1.95733 14.5684 1.87467 14.4404 1.8C14.3124 1.72 14.187 1.68 14.0644 1.68C13.6804 1.68 13.483 1.91467 13.4724 2.384H12.5844C12.5844 2.128 12.619 1.896 12.6884 1.688C12.7577 1.47467 12.8564 1.29333 12.9844 1.144C13.1124 0.989333 13.2644 0.872 13.4404 0.792C13.6164 0.706666 13.8084 0.664 14.0164 0.664C14.203 0.664 14.3764 0.704 14.5364 0.783999C14.7017 0.858666 14.8564 0.941333 15.0004 1.032C15.1444 1.12267 15.2777 1.208 15.4004 1.288C15.5284 1.36267 15.6537 1.4 15.7764 1.4ZM23.4815 3.768C24.0735 3.768 24.6068 3.86667 25.0815 4.064C25.5562 4.26133 25.9615 4.54133 26.2975 4.904C26.6335 5.26667 26.8895 5.70667 27.0655 6.224C27.2468 6.736 27.3375 7.30933 27.3375 7.944C27.3375 8.584 27.2468 9.16 27.0655 9.672C26.8895 10.184 26.6335 10.6213 26.2975 10.984C25.9615 11.3467 25.5562 11.6267 25.0815 11.824C24.6068 12.016 24.0735 12.112 23.4815 12.112C22.8842 12.112 22.3455 12.016 21.8655 11.824C21.3908 11.6267 20.9855 11.3467 20.6495 10.984C20.3135 10.6213 20.0548 10.184 19.8735 9.672C19.6975 9.16 19.6095 8.584 19.6095 7.944C19.6095 7.30933 19.6975 6.736 19.8735 6.224C20.0548 5.70667 20.3135 5.26667 20.6495 4.904C20.9855 4.54133 21.3908 4.26133 21.8655 4.064C22.3455 3.86667 22.8842 3.768 23.4815 3.768ZM23.4815 11C24.2815 11 24.8788 10.7333 25.2735 10.2C25.6682 9.66133 25.8655 8.912 25.8655 7.952C25.8655 6.98667 25.6682 6.23467 25.2735 5.696C24.8788 5.15733 24.2815 4.888 23.4815 4.888C23.0762 4.888 22.7215 4.95733 22.4175 5.096C22.1188 5.23467 21.8682 5.43467 21.6655 5.696C21.4682 5.95733 21.3188 6.28 21.2175 6.664C21.1215 7.04267 21.0735 7.472 21.0735 7.952C21.0735 8.912 21.2708 9.66133 21.6655 10.2C22.0655 10.7333 22.6708 11 23.4815 11ZM35.7254 12.128C35.0854 12.128 34.592 11.9493 34.2454 11.592C33.904 11.2347 33.7334 10.72 33.7334 10.048V5.088H32.7574C32.672 5.088 32.6 5.064 32.5414 5.016C32.4827 4.96267 32.4534 4.88267 32.4534 4.776V4.208L33.7814 4.04L34.1094 1.536C34.1254 1.456 34.16 1.392 34.2134 1.344C34.272 1.29067 34.3467 1.264 34.4374 1.264H35.1574V4.056H37.5014V5.088H35.1574V9.952C35.1574 10.2933 35.24 10.5467 35.4054 10.712C35.5707 10.8773 35.784 10.96 36.0454 10.96C36.1947 10.96 36.3227 10.9413 36.4294 10.904C36.5414 10.8613 36.6374 10.816 36.7174 10.768C36.7974 10.72 36.864 10.6773 36.9174 10.64C36.976 10.5973 37.0267 10.576 37.0694 10.576C37.144 10.576 37.2107 10.6213 37.2694 10.712L37.6854 11.392C37.44 11.6213 37.144 11.8027 36.7974 11.936C36.4507 12.064 36.0934 12.128 35.7254 12.128ZM44.3489 7.064C44.3489 6.73333 44.3009 6.432 44.2049 6.16C44.1142 5.88267 43.9782 5.64533 43.7969 5.448C43.6209 5.24533 43.4049 5.09067 43.1489 4.984C42.8929 4.872 42.6022 4.816 42.2769 4.816C41.5942 4.816 41.0529 5.016 40.6529 5.416C40.2582 5.81067 40.0129 6.36 39.9169 7.064H44.3489ZM45.5009 10.864C45.3249 11.0773 45.1142 11.264 44.8689 11.424C44.6235 11.5787 44.3595 11.7067 44.0769 11.808C43.7995 11.9093 43.5115 11.984 43.2129 12.032C42.9142 12.0853 42.6182 12.112 42.3249 12.112C41.7649 12.112 41.2475 12.0187 40.7729 11.832C40.3035 11.64 39.8955 11.3627 39.5489 11C39.2075 10.632 38.9409 10.1787 38.7489 9.64C38.5569 9.10133 38.4609 8.48267 38.4609 7.784C38.4609 7.21867 38.5462 6.69067 38.7169 6.2C38.8929 5.70933 39.1435 5.28533 39.4689 4.928C39.7942 4.56533 40.1915 4.28267 40.6609 4.08C41.1302 3.872 41.6582 3.768 42.2449 3.768C42.7302 3.768 43.1782 3.85067 43.5889 4.016C44.0049 4.176 44.3622 4.41067 44.6609 4.72C44.9649 5.024 45.2022 5.40267 45.3729 5.856C45.5435 6.304 45.6289 6.816 45.6289 7.392C45.6289 7.616 45.6049 7.76533 45.5569 7.84C45.5089 7.91467 45.4182 7.952 45.2849 7.952H39.8689C39.8849 8.464 39.9542 8.90933 40.0769 9.288C40.2049 9.66667 40.3809 9.984 40.6049 10.24C40.8289 10.4907 41.0955 10.68 41.4049 10.808C41.7142 10.9307 42.0609 10.992 42.4449 10.992C42.8022 10.992 43.1089 10.952 43.3649 10.872C43.6262 10.7867 43.8502 10.696 44.0369 10.6C44.2235 10.504 44.3782 10.416 44.5009 10.336C44.6289 10.2507 44.7382 10.208 44.8289 10.208C44.9462 10.208 45.0369 10.2533 45.1009 10.344L45.5009 10.864ZM47.378 12V3.896H48.234C48.4367 3.896 48.562 3.99467 48.61 4.192L48.714 5.024C49.0127 4.656 49.3487 4.35467 49.722 4.12C50.0953 3.88533 50.5273 3.768 51.018 3.768C51.562 3.768 52.002 3.92 52.338 4.224C52.6793 4.528 52.9247 4.93867 53.074 5.456C53.1913 5.16267 53.3407 4.90933 53.522 4.696C53.7087 4.48267 53.9167 4.30667 54.146 4.168C54.3753 4.02933 54.618 3.928 54.874 3.864C55.1353 3.8 55.3993 3.768 55.666 3.768C56.0927 3.768 56.4713 3.83733 56.802 3.976C57.138 4.10933 57.4207 4.30667 57.65 4.568C57.8847 4.82933 58.0633 5.152 58.186 5.536C58.3087 5.91467 58.37 6.34933 58.37 6.84V12H56.938V6.84C56.938 6.20533 56.7993 5.72533 56.522 5.4C56.2447 5.06933 55.8447 4.904 55.322 4.904C55.0873 4.904 54.8633 4.94667 54.65 5.032C54.442 5.112 54.258 5.232 54.098 5.392C53.938 5.552 53.81 5.75467 53.714 6C53.6233 6.24 53.578 6.52 53.578 6.84V12H52.146V6.84C52.146 6.18933 52.0153 5.704 51.754 5.384C51.4927 5.064 51.1113 4.904 50.61 4.904C50.258 4.904 49.9327 5 49.634 5.192C49.3353 5.37867 49.0607 5.63467 48.81 5.96V12H47.378ZM71.292 3.896V12H70.444C70.2413 12 70.1133 11.9013 70.06 11.704L69.948 10.832C69.596 11.2213 69.2013 11.536 68.764 11.776C68.3267 12.0107 67.8253 12.128 67.26 12.128C66.8173 12.128 66.4253 12.056 66.084 11.912C65.748 11.7627 65.4653 11.5547 65.236 11.288C65.0067 11.0213 64.8333 10.6987 64.716 10.32C64.604 9.94133 64.548 9.52267 64.548 9.064V3.896H65.972V9.064C65.972 9.67733 66.1107 10.152 66.388 10.488C66.6707 10.824 67.1 10.992 67.676 10.992C68.0973 10.992 68.4893 10.8933 68.852 10.696C69.22 10.4933 69.5587 10.216 69.868 9.864V3.896H71.292ZM73.5499 12V3.896H74.4059C74.6085 3.896 74.7339 3.99467 74.7819 4.192L74.8859 5.024C75.1845 4.656 75.5205 4.35467 75.8939 4.12C76.2672 3.88533 76.6992 3.768 77.1899 3.768C77.7339 3.768 78.1739 3.92 78.5099 4.224C78.8512 4.528 79.0965 4.93867 79.2459 5.456C79.3632 5.16267 79.5125 4.90933 79.6939 4.696C79.8805 4.48267 80.0885 4.30667 80.3179 4.168C80.5472 4.02933 80.7899 3.928 81.0459 3.864C81.3072 3.8 81.5712 3.768 81.8379 3.768C82.2645 3.768 82.6432 3.83733 82.9739 3.976C83.3099 4.10933 83.5925 4.30667 83.8219 4.568C84.0565 4.82933 84.2352 5.152 84.3579 5.536C84.4805 5.91467 84.5419 6.34933 84.5419 6.84V12H83.1099V6.84C83.1099 6.20533 82.9712 5.72533 82.6939 5.4C82.4165 5.06933 82.0165 4.904 81.4939 4.904C81.2592 4.904 81.0352 4.94667 80.8219 5.032C80.6139 5.112 80.4299 5.232 80.2699 5.392C80.1099 5.552 79.9819 5.75467 79.8859 6C79.7952 6.24 79.7499 6.52 79.7499 6.84V12H78.3179V6.84C78.3179 6.18933 78.1872 5.704 77.9259 5.384C77.6645 5.064 77.2832 4.904 76.7819 4.904C76.4299 4.904 76.1045 5 75.8059 5.192C75.5072 5.37867 75.2325 5.63467 74.9819 5.96V12H73.5499ZM91.0981 8.352C90.4421 8.37333 89.8821 8.42667 89.4181 8.512C88.9595 8.592 88.5835 8.69867 88.2901 8.832C88.0021 8.96533 87.7915 9.12267 87.6581 9.304C87.5301 9.48533 87.4661 9.688 87.4661 9.912C87.4661 10.1253 87.5008 10.3093 87.5701 10.464C87.6395 10.6187 87.7328 10.7467 87.8501 10.848C87.9728 10.944 88.1141 11.016 88.2741 11.064C88.4395 11.1067 88.6155 11.128 88.8021 11.128C89.0528 11.128 89.2821 11.104 89.4901 11.056C89.6981 11.0027 89.8928 10.928 90.0741 10.832C90.2608 10.736 90.4368 10.6213 90.6021 10.488C90.7728 10.3547 90.9381 10.2027 91.0981 10.032V8.352ZM86.4981 5.04C86.9461 4.608 87.4288 4.28533 87.9461 4.072C88.4635 3.85867 89.0368 3.752 89.6661 3.752C90.1195 3.752 90.5221 3.82667 90.8741 3.976C91.2261 4.12533 91.5221 4.33333 91.7621 4.6C92.0021 4.86667 92.1835 5.18933 92.3061 5.568C92.4288 5.94667 92.4901 6.36267 92.4901 6.816V12H91.8581C91.7195 12 91.6128 11.9787 91.5381 11.936C91.4635 11.888 91.4048 11.7973 91.3621 11.664L91.2021 10.896C90.9888 11.0933 90.7808 11.2693 90.5781 11.424C90.3755 11.5733 90.1621 11.7013 89.9381 11.808C89.7141 11.9093 89.4741 11.9867 89.2181 12.04C88.9675 12.0987 88.6875 12.128 88.3781 12.128C88.0635 12.128 87.7675 12.0853 87.4901 12C87.2128 11.9093 86.9701 11.776 86.7621 11.6C86.5595 11.424 86.3968 11.2027 86.2741 10.936C86.1568 10.664 86.0981 10.344 86.0981 9.976C86.0981 9.656 86.1861 9.34933 86.3621 9.056C86.5381 8.75733 86.8235 8.49333 87.2181 8.264C87.6128 8.03467 88.1275 7.848 88.7621 7.704C89.3968 7.55467 90.1755 7.46933 91.0981 7.448V6.816C91.0981 6.18667 90.9621 5.712 90.6901 5.392C90.4181 5.06667 90.0208 4.904 89.4981 4.904C89.1461 4.904 88.8501 4.94933 88.6101 5.04C88.3755 5.12533 88.1701 5.224 87.9941 5.336C87.8235 5.44267 87.6741 5.54133 87.5461 5.632C87.4235 5.71733 87.3008 5.76 87.1781 5.76C87.0821 5.76 86.9995 5.736 86.9301 5.688C86.8608 5.63467 86.8021 5.57067 86.7541 5.496L86.4981 5.04ZM104.393 5.336C104.35 5.39467 104.308 5.44 104.265 5.472C104.222 5.504 104.164 5.52 104.089 5.52C104.009 5.52 103.921 5.488 103.825 5.424C103.729 5.35467 103.609 5.28 103.465 5.2C103.326 5.12 103.153 5.048 102.945 4.984C102.742 4.91467 102.492 4.88 102.193 4.88C101.793 4.88 101.441 4.952 101.137 5.096C100.833 5.23467 100.577 5.43733 100.369 5.704C100.166 5.97067 100.012 6.29333 99.905 6.672C99.8037 7.05067 99.753 7.47467 99.753 7.944C99.753 8.43467 99.809 8.872 99.921 9.256C100.033 9.63467 100.19 9.95467 100.393 10.216C100.601 10.472 100.849 10.6693 101.137 10.808C101.43 10.9413 101.758 11.008 102.121 11.008C102.468 11.008 102.753 10.968 102.977 10.888C103.201 10.8027 103.385 10.7093 103.529 10.608C103.678 10.5067 103.801 10.416 103.897 10.336C103.998 10.2507 104.097 10.208 104.193 10.208C104.31 10.208 104.401 10.2533 104.465 10.344L104.865 10.864C104.689 11.0827 104.489 11.2693 104.265 11.424C104.041 11.5787 103.798 11.7093 103.537 11.816C103.281 11.9173 103.012 11.992 102.729 12.04C102.446 12.088 102.158 12.112 101.865 12.112C101.358 12.112 100.886 12.0187 100.449 11.832C100.017 11.6453 99.641 11.376 99.321 11.024C99.001 10.6667 98.7503 10.2293 98.569 9.712C98.3877 9.19467 98.297 8.60533 98.297 7.944C98.297 7.34133 98.3797 6.784 98.545 6.272C98.7157 5.76 98.961 5.32 99.281 4.952C99.6063 4.57867 100.004 4.288 100.473 4.08C100.948 3.872 101.492 3.768 102.105 3.768C102.676 3.768 103.177 3.86133 103.609 4.048C104.046 4.22933 104.433 4.488 104.769 4.824L104.393 5.336ZM109.669 3.768C110.261 3.768 110.794 3.86667 111.269 4.064C111.744 4.26133 112.149 4.54133 112.485 4.904C112.821 5.26667 113.077 5.70667 113.253 6.224C113.434 6.736 113.525 7.30933 113.525 7.944C113.525 8.584 113.434 9.16 113.253 9.672C113.077 10.184 112.821 10.6213 112.485 10.984C112.149 11.3467 111.744 11.6267 111.269 11.824C110.794 12.016 110.261 12.112 109.669 12.112C109.072 12.112 108.533 12.016 108.053 11.824C107.578 11.6267 107.173 11.3467 106.837 10.984C106.501 10.6213 106.242 10.184 106.061 9.672C105.885 9.16 105.797 8.584 105.797 7.944C105.797 7.30933 105.885 6.736 106.061 6.224C106.242 5.70667 106.501 5.26667 106.837 4.904C107.173 4.54133 107.578 4.26133 108.053 4.064C108.533 3.86667 109.072 3.768 109.669 3.768ZM109.669 11C110.469 11 111.066 10.7333 111.461 10.2C111.856 9.66133 112.053 8.912 112.053 7.952C112.053 6.98667 111.856 6.23467 111.461 5.696C111.066 5.15733 110.469 4.888 109.669 4.888C109.264 4.888 108.909 4.95733 108.605 5.096C108.306 5.23467 108.056 5.43467 107.853 5.696C107.656 5.95733 107.506 6.28 107.405 6.664C107.309 7.04267 107.261 7.472 107.261 7.952C107.261 8.912 107.458 9.66133 107.853 10.2C108.253 10.7333 108.858 11 109.669 11ZM116.675 5.072C116.851 4.87467 117.038 4.696 117.235 4.536C117.432 4.376 117.64 4.24 117.859 4.128C118.083 4.01067 118.318 3.92267 118.563 3.864C118.814 3.8 119.083 3.768 119.371 3.768C119.814 3.768 120.203 3.84267 120.539 3.992C120.88 4.136 121.163 4.344 121.387 4.616C121.616 4.88267 121.79 5.20533 121.907 5.584C122.024 5.96267 122.083 6.38133 122.083 6.84V12H120.651V6.84C120.651 6.22667 120.51 5.752 120.227 5.416C119.95 5.07467 119.526 4.904 118.955 4.904C118.534 4.904 118.139 5.00533 117.771 5.208C117.408 5.41067 117.072 5.68533 116.763 6.032V12H115.331V3.896H116.187C116.39 3.896 116.515 3.99467 116.563 4.192L116.675 5.072ZM126.632 12.128C125.992 12.128 125.498 11.9493 125.152 11.592C124.81 11.2347 124.64 10.72 124.64 10.048V5.088H123.664C123.578 5.088 123.506 5.064 123.448 5.016C123.389 4.96267 123.36 4.88267 123.36 4.776V4.208L124.688 4.04L125.016 1.536C125.032 1.456 125.066 1.392 125.12 1.344C125.178 1.29067 125.253 1.264 125.344 1.264H126.064V4.056H128.408V5.088H126.064V9.952C126.064 10.2933 126.146 10.5467 126.312 10.712C126.477 10.8773 126.69 10.96 126.952 10.96C127.101 10.96 127.229 10.9413 127.336 10.904C127.448 10.8613 127.544 10.816 127.624 10.768C127.704 10.72 127.77 10.6773 127.824 10.64C127.882 10.5973 127.933 10.576 127.976 10.576C128.05 10.576 128.117 10.6213 128.176 10.712L128.592 11.392C128.346 11.6213 128.05 11.8027 127.704 11.936C127.357 12.064 127 12.128 126.632 12.128ZM134.27 8.352C133.614 8.37333 133.054 8.42667 132.59 8.512C132.131 8.592 131.755 8.69867 131.462 8.832C131.174 8.96533 130.963 9.12267 130.83 9.304C130.702 9.48533 130.638 9.688 130.638 9.912C130.638 10.1253 130.673 10.3093 130.742 10.464C130.811 10.6187 130.905 10.7467 131.022 10.848C131.145 10.944 131.286 11.016 131.446 11.064C131.611 11.1067 131.787 11.128 131.974 11.128C132.225 11.128 132.454 11.104 132.662 11.056C132.87 11.0027 133.065 10.928 133.246 10.832C133.433 10.736 133.609 10.6213 133.774 10.488C133.945 10.3547 134.11 10.2027 134.27 10.032V8.352ZM129.67 5.04C130.118 4.608 130.601 4.28533 131.118 4.072C131.635 3.85867 132.209 3.752 132.838 3.752C133.291 3.752 133.694 3.82667 134.046 3.976C134.398 4.12533 134.694 4.33333 134.934 4.6C135.174 4.86667 135.355 5.18933 135.478 5.568C135.601 5.94667 135.662 6.36267 135.662 6.816V12H135.03C134.891 12 134.785 11.9787 134.71 11.936C134.635 11.888 134.577 11.7973 134.534 11.664L134.374 10.896C134.161 11.0933 133.953 11.2693 133.75 11.424C133.547 11.5733 133.334 11.7013 133.11 11.808C132.886 11.9093 132.646 11.9867 132.39 12.04C132.139 12.0987 131.859 12.128 131.55 12.128C131.235 12.128 130.939 12.0853 130.662 12C130.385 11.9093 130.142 11.776 129.934 11.6C129.731 11.424 129.569 11.2027 129.446 10.936C129.329 10.664 129.27 10.344 129.27 9.976C129.27 9.656 129.358 9.34933 129.534 9.056C129.71 8.75733 129.995 8.49333 130.39 8.264C130.785 8.03467 131.299 7.848 131.934 7.704C132.569 7.55467 133.347 7.46933 134.27 7.448V6.816C134.27 6.18667 134.134 5.712 133.862 5.392C133.59 5.06667 133.193 4.904 132.67 4.904C132.318 4.904 132.022 4.94933 131.782 5.04C131.547 5.12533 131.342 5.224 131.166 5.336C130.995 5.44267 130.846 5.54133 130.718 5.632C130.595 5.71733 130.473 5.76 130.35 5.76C130.254 5.76 130.171 5.736 130.102 5.688C130.033 5.63467 129.974 5.57067 129.926 5.496L129.67 5.04ZM136.976 1.56C137.141 1.40533 137.323 1.25867 137.52 1.12C137.723 0.981333 137.941 0.858666 138.176 0.752C138.416 0.645333 138.672 0.562666 138.944 0.504C139.221 0.439999 139.52 0.407999 139.84 0.407999C140.261 0.407999 140.651 0.469332 141.008 0.591999C141.371 0.714666 141.683 0.887999 141.944 1.112C142.205 1.336 142.411 1.608 142.56 1.928C142.709 2.248 142.784 2.608 142.784 3.008C142.784 3.41333 142.723 3.76267 142.6 4.056C142.483 4.34933 142.331 4.608 142.144 4.832C141.963 5.05067 141.763 5.24267 141.544 5.408C141.331 5.568 141.128 5.72 140.936 5.864C140.744 6.008 140.579 6.152 140.44 6.296C140.307 6.44 140.229 6.6 140.208 6.776L140.064 8H139.088L138.992 6.672C138.971 6.432 139.016 6.224 139.128 6.048C139.24 5.86667 139.387 5.69867 139.568 5.544C139.749 5.384 139.949 5.22933 140.168 5.08C140.387 4.92533 140.589 4.75467 140.776 4.568C140.968 4.38133 141.128 4.17067 141.256 3.936C141.384 3.696 141.448 3.41067 141.448 3.08C141.448 2.85067 141.403 2.64267 141.312 2.456C141.221 2.26933 141.099 2.112 140.944 1.984C140.789 1.85067 140.605 1.74933 140.392 1.68C140.184 1.61067 139.96 1.576 139.72 1.576C139.395 1.576 139.115 1.616 138.88 1.696C138.651 1.776 138.456 1.864 138.296 1.96C138.136 2.056 138.005 2.144 137.904 2.224C137.808 2.304 137.728 2.344 137.664 2.344C137.531 2.344 137.427 2.28267 137.352 2.16L136.976 1.56ZM138.536 11.12C138.536 10.9813 138.56 10.8507 138.608 10.728C138.661 10.6053 138.731 10.4987 138.816 10.408C138.907 10.3173 139.013 10.2453 139.136 10.192C139.259 10.1387 139.389 10.112 139.528 10.112C139.667 10.112 139.797 10.1387 139.92 10.192C140.043 10.2453 140.149 10.3173 140.24 10.408C140.331 10.4987 140.403 10.6053 140.456 10.728C140.509 10.8507 140.536 10.9813 140.536 11.12C140.536 11.264 140.509 11.3973 140.456 11.52C140.403 11.6373 140.331 11.7413 140.24 11.832C140.149 11.9227 140.043 11.992 139.92 12.04C139.797 12.0933 139.667 12.12 139.528 12.12C139.389 12.12 139.259 12.0933 139.136 12.04C139.013 11.992 138.907 11.9227 138.816 11.832C138.731 11.7413 138.661 11.6373 138.608 11.52C138.56 11.3973 138.536 11.264 138.536 11.12Z" fill="#1A202C"/>
<path d="M157.09 9.632C157.175 9.632 157.25 9.66667 157.314 9.736L157.93 10.4C157.461 10.944 156.89 11.368 156.218 11.672C155.551 11.976 154.743 12.128 153.794 12.128C152.973 12.128 152.226 11.9867 151.554 11.704C150.882 11.416 150.309 11.016 149.834 10.504C149.359 9.98667 148.991 9.368 148.73 8.648C148.469 7.928 148.338 7.136 148.338 6.272C148.338 5.408 148.474 4.616 148.746 3.896C149.018 3.176 149.399 2.55733 149.89 2.04C150.386 1.52267 150.978 1.12267 151.666 0.839999C152.354 0.551999 153.114 0.407999 153.946 0.407999C154.762 0.407999 155.482 0.538666 156.106 0.799999C156.73 1.06133 157.279 1.416 157.754 1.864L157.242 2.576C157.21 2.62933 157.167 2.67467 157.114 2.712C157.066 2.744 156.999 2.76 156.914 2.76C156.818 2.76 156.701 2.70933 156.562 2.608C156.423 2.50133 156.242 2.384 156.018 2.256C155.794 2.128 155.514 2.01333 155.178 1.912C154.842 1.80533 154.429 1.752 153.938 1.752C153.346 1.752 152.805 1.856 152.314 2.064C151.823 2.26667 151.399 2.56267 151.042 2.952C150.69 3.34133 150.415 3.816 150.218 4.376C150.021 4.936 149.922 5.568 149.922 6.272C149.922 6.98667 150.023 7.624 150.226 8.184C150.434 8.744 150.714 9.21867 151.066 9.608C151.423 9.992 151.842 10.2853 152.322 10.488C152.807 10.6907 153.33 10.792 153.89 10.792C154.231 10.792 154.538 10.7733 154.81 10.736C155.087 10.6933 155.341 10.6293 155.57 10.544C155.805 10.4587 156.021 10.352 156.218 10.224C156.421 10.0907 156.621 9.93333 156.818 9.752C156.909 9.672 156.999 9.632 157.09 9.632ZM163.786 8.352C163.13 8.37333 162.57 8.42667 162.106 8.512C161.647 8.592 161.271 8.69867 160.978 8.832C160.69 8.96533 160.479 9.12267 160.346 9.304C160.218 9.48533 160.154 9.688 160.154 9.912C160.154 10.1253 160.188 10.3093 160.258 10.464C160.327 10.6187 160.42 10.7467 160.538 10.848C160.66 10.944 160.802 11.016 160.962 11.064C161.127 11.1067 161.303 11.128 161.49 11.128C161.74 11.128 161.97 11.104 162.178 11.056C162.386 11.0027 162.58 10.928 162.762 10.832C162.948 10.736 163.124 10.6213 163.29 10.488C163.46 10.3547 163.626 10.2027 163.786 10.032V8.352ZM159.186 5.04C159.634 4.608 160.116 4.28533 160.634 4.072C161.151 3.85867 161.724 3.752 162.354 3.752C162.807 3.752 163.21 3.82667 163.562 3.976C163.914 4.12533 164.21 4.33333 164.45 4.6C164.69 4.86667 164.871 5.18933 164.994 5.568C165.116 5.94667 165.178 6.36267 165.178 6.816V12H164.546C164.407 12 164.3 11.9787 164.226 11.936C164.151 11.888 164.092 11.7973 164.05 11.664L163.89 10.896C163.676 11.0933 163.468 11.2693 163.266 11.424C163.063 11.5733 162.85 11.7013 162.626 11.808C162.402 11.9093 162.162 11.9867 161.906 12.04C161.655 12.0987 161.375 12.128 161.066 12.128C160.751 12.128 160.455 12.0853 160.178 12C159.9 11.9093 159.658 11.776 159.45 11.6C159.247 11.424 159.084 11.2027 158.962 10.936C158.844 10.664 158.786 10.344 158.786 9.976C158.786 9.656 158.874 9.34933 159.05 9.056C159.226 8.75733 159.511 8.49333 159.906 8.264C160.3 8.03467 160.815 7.848 161.45 7.704C162.084 7.55467 162.863 7.46933 163.786 7.448V6.816C163.786 6.18667 163.65 5.712 163.378 5.392C163.106 5.06667 162.708 4.904 162.186 4.904C161.834 4.904 161.538 4.94933 161.298 5.04C161.063 5.12533 160.858 5.224 160.682 5.336C160.511 5.44267 160.362 5.54133 160.234 5.632C160.111 5.71733 159.988 5.76 159.866 5.76C159.77 5.76 159.687 5.736 159.618 5.688C159.548 5.63467 159.49 5.57067 159.442 5.496L159.186 5.04ZM172.627 5.824C172.36 5.46667 172.072 5.21867 171.763 5.08C171.453 4.936 171.107 4.864 170.723 4.864C169.971 4.864 169.392 5.13333 168.987 5.672C168.581 6.21067 168.379 6.97867 168.379 7.976C168.379 8.504 168.424 8.95733 168.515 9.336C168.605 9.70933 168.739 10.0187 168.915 10.264C169.091 10.504 169.307 10.68 169.563 10.792C169.819 10.904 170.109 10.96 170.435 10.96C170.904 10.96 171.312 10.8533 171.659 10.64C172.011 10.4267 172.333 10.1253 172.627 9.736V5.824ZM174.051 0.216V12H173.203C173 12 172.872 11.9013 172.819 11.704L172.691 10.72C172.344 11.136 171.949 11.472 171.507 11.728C171.064 11.984 170.552 12.112 169.971 12.112C169.507 12.112 169.085 12.024 168.707 11.848C168.328 11.6667 168.005 11.4027 167.739 11.056C167.472 10.7093 167.267 10.2773 167.123 9.76C166.979 9.24267 166.907 8.648 166.907 7.976C166.907 7.37867 166.987 6.824 167.147 6.312C167.307 5.79467 167.536 5.34667 167.835 4.968C168.133 4.58933 168.499 4.29333 168.931 4.08C169.368 3.86133 169.859 3.752 170.403 3.752C170.899 3.752 171.323 3.83733 171.675 4.008C172.032 4.17333 172.349 4.40533 172.627 4.704V0.216H174.051ZM180.692 8.352C180.036 8.37333 179.476 8.42667 179.012 8.512C178.553 8.592 178.177 8.69867 177.884 8.832C177.596 8.96533 177.385 9.12267 177.252 9.304C177.124 9.48533 177.06 9.688 177.06 9.912C177.06 10.1253 177.095 10.3093 177.164 10.464C177.233 10.6187 177.327 10.7467 177.444 10.848C177.567 10.944 177.708 11.016 177.868 11.064C178.033 11.1067 178.209 11.128 178.396 11.128C178.647 11.128 178.876 11.104 179.084 11.056C179.292 11.0027 179.487 10.928 179.668 10.832C179.855 10.736 180.031 10.6213 180.196 10.488C180.367 10.3547 180.532 10.2027 180.692 10.032V8.352ZM176.092 5.04C176.54 4.608 177.023 4.28533 177.54 4.072C178.057 3.85867 178.631 3.752 179.26 3.752C179.713 3.752 180.116 3.82667 180.468 3.976C180.82 4.12533 181.116 4.33333 181.356 4.6C181.596 4.86667 181.777 5.18933 181.9 5.568C182.023 5.94667 182.084 6.36267 182.084 6.816V12H181.452C181.313 12 181.207 11.9787 181.132 11.936C181.057 11.888 180.999 11.7973 180.956 11.664L180.796 10.896C180.583 11.0933 180.375 11.2693 180.172 11.424C179.969 11.5733 179.756 11.7013 179.532 11.808C179.308 11.9093 179.068 11.9867 178.812 12.04C178.561 12.0987 178.281 12.128 177.972 12.128C177.657 12.128 177.361 12.0853 177.084 12C176.807 11.9093 176.564 11.776 176.356 11.6C176.153 11.424 175.991 11.2027 175.868 10.936C175.751 10.664 175.692 10.344 175.692 9.976C175.692 9.656 175.78 9.34933 175.956 9.056C176.132 8.75733 176.417 8.49333 176.812 8.264C177.207 8.03467 177.721 7.848 178.356 7.704C178.991 7.55467 179.769 7.46933 180.692 7.448V6.816C180.692 6.18667 180.556 5.712 180.284 5.392C180.012 5.06667 179.615 4.904 179.092 4.904C178.74 4.904 178.444 4.94933 178.204 5.04C177.969 5.12533 177.764 5.224 177.588 5.336C177.417 5.44267 177.268 5.54133 177.14 5.632C177.017 5.71733 176.895 5.76 176.772 5.76C176.676 5.76 176.593 5.736 176.524 5.688C176.455 5.63467 176.396 5.57067 176.348 5.496L176.092 5.04ZM188.973 5.232C188.909 5.34933 188.81 5.408 188.677 5.408C188.597 5.408 188.506 5.37867 188.405 5.32C188.304 5.26133 188.178 5.19733 188.029 5.128C187.885 5.05333 187.712 4.98667 187.509 4.928C187.306 4.864 187.066 4.832 186.789 4.832C186.549 4.832 186.333 4.864 186.141 4.928C185.949 4.98667 185.784 5.06933 185.645 5.176C185.512 5.28267 185.408 5.408 185.333 5.552C185.264 5.69067 185.229 5.84267 185.229 6.008C185.229 6.216 185.288 6.38933 185.405 6.528C185.528 6.66667 185.688 6.78667 185.885 6.888C186.082 6.98933 186.306 7.08 186.557 7.16C186.808 7.23467 187.064 7.31733 187.325 7.408C187.592 7.49333 187.85 7.58933 188.101 7.696C188.352 7.80267 188.576 7.936 188.773 8.096C188.97 8.256 189.128 8.45333 189.245 8.688C189.368 8.91733 189.429 9.19467 189.429 9.52C189.429 9.89333 189.362 10.24 189.229 10.56C189.096 10.8747 188.898 11.1493 188.637 11.384C188.376 11.6133 188.056 11.7947 187.677 11.928C187.298 12.0613 186.861 12.128 186.365 12.128C185.8 12.128 185.288 12.0373 184.829 11.856C184.37 11.6693 183.981 11.432 183.661 11.144L183.997 10.6C184.04 10.5307 184.09 10.4773 184.149 10.44C184.208 10.4027 184.282 10.384 184.373 10.384C184.469 10.384 184.57 10.4213 184.677 10.496C184.784 10.5707 184.912 10.6533 185.061 10.744C185.216 10.8347 185.402 10.9173 185.621 10.992C185.84 11.0667 186.112 11.104 186.437 11.104C186.714 11.104 186.957 11.0693 187.165 11C187.373 10.9253 187.546 10.8267 187.685 10.704C187.824 10.5813 187.925 10.44 187.989 10.28C188.058 10.12 188.093 9.94933 188.093 9.768C188.093 9.544 188.032 9.36 187.909 9.216C187.792 9.06667 187.634 8.94133 187.437 8.84C187.24 8.73333 187.013 8.64267 186.757 8.568C186.506 8.488 186.248 8.40533 185.981 8.32C185.72 8.23467 185.461 8.13867 185.205 8.032C184.954 7.92 184.73 7.78133 184.533 7.616C184.336 7.45067 184.176 7.248 184.053 7.008C183.936 6.76267 183.877 6.46667 183.877 6.12C183.877 5.81067 183.941 5.51467 184.069 5.232C184.197 4.944 184.384 4.69333 184.629 4.48C184.874 4.26133 185.176 4.088 185.533 3.96C185.89 3.832 186.298 3.768 186.757 3.768C187.29 3.768 187.768 3.85333 188.189 4.024C188.616 4.18933 188.984 4.41867 189.293 4.712L188.973 5.232ZM193.663 12.128C193.023 12.128 192.53 11.9493 192.183 11.592C191.842 11.2347 191.671 10.72 191.671 10.048V5.088H190.695C190.61 5.088 190.538 5.064 190.479 5.016C190.42 4.96267 190.391 4.88267 190.391 4.776V4.208L191.719 4.04L192.047 1.536C192.063 1.456 192.098 1.392 192.151 1.344C192.21 1.29067 192.284 1.264 192.375 1.264H193.095V4.056H195.439V5.088H193.095V9.952C193.095 10.2933 193.178 10.5467 193.343 10.712C193.508 10.8773 193.722 10.96 193.983 10.96C194.132 10.96 194.26 10.9413 194.367 10.904C194.479 10.8613 194.575 10.816 194.655 10.768C194.735 10.72 194.802 10.6773 194.855 10.64C194.914 10.5973 194.964 10.576 195.007 10.576C195.082 10.576 195.148 10.6213 195.207 10.712L195.623 11.392C195.378 11.6213 195.082 11.8027 194.735 11.936C194.388 12.064 194.031 12.128 193.663 12.128ZM198.261 5.52C198.517 4.96533 198.832 4.53333 199.205 4.224C199.579 3.90933 200.035 3.752 200.573 3.752C200.744 3.752 200.907 3.77067 201.061 3.808C201.221 3.84533 201.363 3.904 201.485 3.984L201.381 5.048C201.349 5.18133 201.269 5.248 201.141 5.248C201.067 5.248 200.957 5.232 200.813 5.2C200.669 5.168 200.507 5.152 200.325 5.152C200.069 5.152 199.84 5.18933 199.637 5.264C199.44 5.33867 199.261 5.45067 199.101 5.6C198.947 5.744 198.805 5.92533 198.677 6.144C198.555 6.35733 198.443 6.60267 198.341 6.88V12H196.909V3.896H197.725C197.88 3.896 197.987 3.92533 198.045 3.984C198.104 4.04267 198.144 4.144 198.165 4.288L198.261 5.52ZM207.833 7.064C207.833 6.73333 207.785 6.432 207.689 6.16C207.599 5.88267 207.463 5.64533 207.281 5.448C207.105 5.24533 206.889 5.09067 206.633 4.984C206.377 4.872 206.087 4.816 205.761 4.816C205.079 4.816 204.537 5.016 204.137 5.416C203.743 5.81067 203.497 6.36 203.401 7.064H207.833ZM208.985 10.864C208.809 11.0773 208.599 11.264 208.353 11.424C208.108 11.5787 207.844 11.7067 207.561 11.808C207.284 11.9093 206.996 11.984 206.697 12.032C206.399 12.0853 206.103 12.112 205.809 12.112C205.249 12.112 204.732 12.0187 204.257 11.832C203.788 11.64 203.38 11.3627 203.033 11C202.692 10.632 202.425 10.1787 202.233 9.64C202.041 9.10133 201.945 8.48267 201.945 7.784C201.945 7.21867 202.031 6.69067 202.201 6.2C202.377 5.70933 202.628 5.28533 202.953 4.928C203.279 4.56533 203.676 4.28267 204.145 4.08C204.615 3.872 205.143 3.768 205.729 3.768C206.215 3.768 206.663 3.85067 207.073 4.016C207.489 4.176 207.847 4.41067 208.145 4.72C208.449 5.024 208.687 5.40267 208.857 5.856C209.028 6.304 209.113 6.816 209.113 7.392C209.113 7.616 209.089 7.76533 209.041 7.84C208.993 7.91467 208.903 7.952 208.769 7.952H203.353C203.369 8.464 203.439 8.90933 203.561 9.288C203.689 9.66667 203.865 9.984 204.089 10.24C204.313 10.4907 204.58 10.68 204.889 10.808C205.199 10.9307 205.545 10.992 205.929 10.992C206.287 10.992 206.593 10.952 206.849 10.872C207.111 10.7867 207.335 10.696 207.521 10.6C207.708 10.504 207.863 10.416 207.985 10.336C208.113 10.2507 208.223 10.208 208.313 10.208C208.431 10.208 208.521 10.2533 208.585 10.344L208.985 10.864ZM210.734 6.6H214.686V7.808H210.734V6.6ZM221.52 5.232C221.456 5.34933 221.357 5.408 221.224 5.408C221.144 5.408 221.053 5.37867 220.952 5.32C220.851 5.26133 220.725 5.19733 220.576 5.128C220.432 5.05333 220.259 4.98667 220.056 4.928C219.853 4.864 219.613 4.832 219.336 4.832C219.096 4.832 218.88 4.864 218.688 4.928C218.496 4.98667 218.331 5.06933 218.192 5.176C218.059 5.28267 217.955 5.408 217.88 5.552C217.811 5.69067 217.776 5.84267 217.776 6.008C217.776 6.216 217.835 6.38933 217.952 6.528C218.075 6.66667 218.235 6.78667 218.432 6.888C218.629 6.98933 218.853 7.08 219.104 7.16C219.355 7.23467 219.611 7.31733 219.872 7.408C220.139 7.49333 220.397 7.58933 220.648 7.696C220.899 7.80267 221.123 7.936 221.32 8.096C221.517 8.256 221.675 8.45333 221.792 8.688C221.915 8.91733 221.976 9.19467 221.976 9.52C221.976 9.89333 221.909 10.24 221.776 10.56C221.643 10.8747 221.445 11.1493 221.184 11.384C220.923 11.6133 220.603 11.7947 220.224 11.928C219.845 12.0613 219.408 12.128 218.912 12.128C218.347 12.128 217.835 12.0373 217.376 11.856C216.917 11.6693 216.528 11.432 216.208 11.144L216.544 10.6C216.587 10.5307 216.637 10.4773 216.696 10.44C216.755 10.4027 216.829 10.384 216.92 10.384C217.016 10.384 217.117 10.4213 217.224 10.496C217.331 10.5707 217.459 10.6533 217.608 10.744C217.763 10.8347 217.949 10.9173 218.168 10.992C218.387 11.0667 218.659 11.104 218.984 11.104C219.261 11.104 219.504 11.0693 219.712 11C219.92 10.9253 220.093 10.8267 220.232 10.704C220.371 10.5813 220.472 10.44 220.536 10.28C220.605 10.12 220.64 9.94933 220.64 9.768C220.64 9.544 220.579 9.36 220.456 9.216C220.339 9.06667 220.181 8.94133 219.984 8.84C219.787 8.73333 219.56 8.64267 219.304 8.568C219.053 8.488 218.795 8.40533 218.528 8.32C218.267 8.23467 218.008 8.13867 217.752 8.032C217.501 7.92 217.277 7.78133 217.08 7.616C216.883 7.45067 216.723 7.248 216.6 7.008C216.483 6.76267 216.424 6.46667 216.424 6.12C216.424 5.81067 216.488 5.51467 216.616 5.232C216.744 4.944 216.931 4.69333 217.176 4.48C217.421 4.26133 217.723 4.088 218.08 3.96C218.437 3.832 218.845 3.768 219.304 3.768C219.837 3.768 220.315 3.85333 220.736 4.024C221.163 4.18933 221.531 4.41867 221.84 4.712L221.52 5.232ZM229.146 7.064C229.146 6.73333 229.098 6.432 229.002 6.16C228.911 5.88267 228.775 5.64533 228.594 5.448C228.418 5.24533 228.202 5.09067 227.946 4.984C227.69 4.872 227.399 4.816 227.074 4.816C226.391 4.816 225.85 5.016 225.45 5.416C225.055 5.81067 224.81 6.36 224.714 7.064H229.146ZM230.298 10.864C230.122 11.0773 229.911 11.264 229.666 11.424C229.42 11.5787 229.156 11.7067 228.874 11.808C228.596 11.9093 228.308 11.984 228.01 12.032C227.711 12.0853 227.415 12.112 227.122 12.112C226.562 12.112 226.044 12.0187 225.57 11.832C225.1 11.64 224.692 11.3627 224.346 11C224.004 10.632 223.738 10.1787 223.546 9.64C223.354 9.10133 223.258 8.48267 223.258 7.784C223.258 7.21867 223.343 6.69067 223.514 6.2C223.69 5.70933 223.94 5.28533 224.266 4.928C224.591 4.56533 224.988 4.28267 225.458 4.08C225.927 3.872 226.455 3.768 227.042 3.768C227.527 3.768 227.975 3.85067 228.386 4.016C228.802 4.176 229.159 4.41067 229.458 4.72C229.762 5.024 229.999 5.40267 230.17 5.856C230.34 6.304 230.426 6.816 230.426 7.392C230.426 7.616 230.402 7.76533 230.354 7.84C230.306 7.91467 230.215 7.952 230.082 7.952H224.666C224.682 8.464 224.751 8.90933 224.874 9.288C225.002 9.66667 225.178 9.984 225.402 10.24C225.626 10.4907 225.892 10.68 226.202 10.808C226.511 10.9307 226.858 10.992 227.242 10.992C227.599 10.992 227.906 10.952 228.162 10.872C228.423 10.7867 228.647 10.696 228.834 10.6C229.02 10.504 229.175 10.416 229.298 10.336C229.426 10.2507 229.535 10.208 229.626 10.208C229.743 10.208 229.834 10.2533 229.898 10.344L230.298 10.864Z" fill="#2B6CB0"/>
</svg>
